<?xml version="1.0" encoding="UTF-8"?>
<!DOCTYPE svg PUBLIC "-//W3C//DTD SVG 1.1//EN" "http://www.w3.org/Graphics/SVG/1.1/DTD/svg11.dtd">
<svg xmlns="http://www.w3.org/2000/svg" version="1.1" width="663px" height="647px" style="shape-rendering:geometricPrecision; text-rendering:geometricPrecision; image-rendering:optimizeQuality; fill-rule:evenodd; clip-rule:evenodd" xmlns:xlink="http://www.w3.org/1999/xlink">
<g><path style="opacity:1" fill="#91c3e9" d="M 349.5,14.5 C 349.918,15.2216 350.584,15.7216 351.5,16C 331.082,57.3344 311.082,98.8344 291.5,140.5C 282.495,139.899 273.495,139.233 264.5,138.5C 245.403,137.921 226.403,138.921 207.5,141.5C 206.761,141.631 206.094,141.464 205.5,141C 224.523,101.787 243.689,62.6208 263,23.5C 264.719,22.1312 266.552,21.1312 268.5,20.5C 280.796,16.95 293.463,14.7834 306.5,14C 320.908,13.1851 335.241,13.3517 349.5,14.5 Z"/></g>
<g><path style="opacity:1" fill="#8ec1e8" d="M 349.5,14.5 C 356.05,14.4541 362.383,15.1208 368.5,16.5C 369.718,17.1614 371.051,17.8281 372.5,18.5C 352.54,60.7516 331.873,102.418 310.5,143.5C 303.992,142.763 297.659,141.763 291.5,140.5C 311.082,98.8344 331.082,57.3344 351.5,16C 350.584,15.7216 349.918,15.2216 349.5,14.5 Z"/></g>
<g><path style="opacity:1" fill="#8cc0e7" d="M 368.5,16.5 C 380.659,17.5988 392.659,19.5988 404.5,22.5C 407.21,24.1084 410.21,25.2751 413.5,26C 393.125,68.5832 372.125,110.75 350.5,152.5C 337.163,148.969 323.83,145.969 310.5,143.5C 331.873,102.418 352.54,60.7516 372.5,18.5C 371.051,17.8281 369.718,17.1614 368.5,16.5 Z"/></g>
<g><path style="opacity:1" fill="#8bbfe7" d="M 268.5,20.5 C 266.552,21.1312 264.719,22.1312 263,23.5C 243.689,62.6208 224.523,101.787 205.5,141C 206.094,141.464 206.761,141.631 207.5,141.5C 207.5,141.833 207.5,142.167 207.5,142.5C 200.407,143.357 193.407,144.69 186.5,146.5C 205.048,107.737 223.881,69.0706 243,30.5C 244.145,29.3636 245.312,28.3636 246.5,27.5C 253.254,23.6391 260.587,21.3058 268.5,20.5 Z"/></g>
<g><path style="opacity:1" fill="#8abee6" d="M 404.5,22.5 C 413.439,24.2328 422.106,26.5662 430.5,29.5C 409.833,72.1667 389.167,114.833 368.5,157.5C 362.413,155.822 356.413,154.156 350.5,152.5C 372.125,110.75 393.125,68.5832 413.5,26C 410.21,25.2751 407.21,24.1084 404.5,22.5 Z"/></g>
<g><path style="opacity:0.999" fill="#86bce6" d="M 246.5,27.5 C 245.312,28.3636 244.145,29.3636 243,30.5C 223.881,69.0706 205.048,107.737 186.5,146.5C 176.515,149.718 166.848,153.718 157.5,158.5C 157.062,158.565 156.728,158.399 156.5,158C 173.46,122.58 190.794,87.4135 208.5,52.5C 219.023,40.9892 231.69,32.6558 246.5,27.5 Z"/></g>
<g><path style="opacity:0.999" fill="#87bce6" d="M 430.5,29.5 C 450.541,34.4017 469.875,41.0683 488.5,49.5C 467.739,92.6877 446.739,135.688 425.5,178.5C 406.514,171.284 387.514,164.284 368.5,157.5C 389.167,114.833 409.833,72.1667 430.5,29.5 Z"/></g>
<g><path style="opacity:1" fill="#84bae5" d="M 488.5,49.5 C 495.906,51.7068 502.906,54.7068 509.5,58.5C 509.804,59.1499 510.137,59.8165 510.5,60.5C 489.981,103.535 468.981,146.202 447.5,188.5C 439.86,185.677 432.527,182.344 425.5,178.5C 446.739,135.688 467.739,92.6877 488.5,49.5 Z"/></g>
<g><path style="opacity:0.918" fill="#81b9e4" d="M 208.5,52.5 C 190.794,87.4135 173.46,122.58 156.5,158C 156.728,158.399 157.062,158.565 157.5,158.5C 156.306,159.272 155.306,160.272 154.5,161.5C 150.148,163.673 146.148,166.34 142.5,169.5C 139.474,172.195 136.474,174.862 133.5,177.5C 132.728,178.694 131.728,179.694 130.5,180.5C 152.643,142.222 174.81,103.888 197,65.5C 200.381,60.7185 204.214,56.3851 208.5,52.5 Z"/></g>
<g><path style="opacity:0.997" fill="#7fb8e4" d="M 509.5,58.5 C 538.685,70.758 566.685,85.0913 593.5,101.5C 594.574,102.885 595.907,104.051 597.5,105C 576.52,148.459 555.187,191.625 533.5,234.5C 512.311,222.07 490.645,210.404 468.5,199.5C 461.626,195.563 454.626,191.897 447.5,188.5C 468.981,146.202 489.981,103.535 510.5,60.5C 510.137,59.8165 509.804,59.1499 509.5,58.5 Z"/></g>
<g><path style="opacity:0.999" fill="#7bb5e2" d="M 593.5,101.5 C 601.171,105.333 608.504,109.666 615.5,114.5C 594.6,158.633 572.933,202.3 550.5,245.5C 548.167,244.167 545.833,242.833 543.5,241.5C 540.167,239.167 536.833,236.833 533.5,234.5C 555.187,191.625 576.52,148.459 597.5,105C 595.907,104.051 594.574,102.885 593.5,101.5 Z"/></g>
<g><path style="opacity:0.984" fill="#79b4e2" d="M 615.5,114.5 C 631.438,124.44 647.104,134.774 662.5,145.5C 662.5,146.5 662.5,147.5 662.5,148.5C 637.751,189.667 612.751,230.667 587.5,271.5C 575.692,262.095 563.359,253.428 550.5,245.5C 572.933,202.3 594.6,158.633 615.5,114.5 Z"/></g>
<g><path style="opacity:1" fill="#5691cc" d="M 264.5,138.5 C 332.173,159.61 400.173,179.944 468.5,199.5C 490.645,210.404 512.311,222.07 533.5,234.5C 536.833,236.833 540.167,239.167 543.5,241.5C 434.762,209.31 326.095,176.81 217.5,144C 214.243,142.957 210.91,142.457 207.5,142.5C 207.5,142.167 207.5,141.833 207.5,141.5C 226.403,138.921 245.403,137.921 264.5,138.5 Z"/></g>
<g><path style="opacity:1" fill="#5893ce" d="M 264.5,138.5 C 273.495,139.233 282.495,139.899 291.5,140.5C 297.659,141.763 303.992,142.763 310.5,143.5C 323.83,145.969 337.163,148.969 350.5,152.5C 356.413,154.156 362.413,155.822 368.5,157.5C 387.514,164.284 406.514,171.284 425.5,178.5C 432.527,182.344 439.86,185.677 447.5,188.5C 454.626,191.897 461.626,195.563 468.5,199.5C 400.173,179.944 332.173,159.61 264.5,138.5 Z"/></g>
<g><path style="opacity:0.999" fill="#538dca" d="M 207.5,142.5 C 210.91,142.457 214.243,142.957 217.5,144C 326.095,176.81 434.762,209.31 543.5,241.5C 545.833,242.833 548.167,244.167 550.5,245.5C 563.359,253.428 575.692,262.095 587.5,271.5C 577.509,275.607 567.176,278.94 556.5,281.5C 422.688,240.896 288.688,200.896 154.5,161.5C 155.306,160.272 156.306,159.272 157.5,158.5C 166.848,153.718 176.515,149.718 186.5,146.5C 193.407,144.69 200.407,143.357 207.5,142.5 Z"/></g>
<g><path style="opacity:0.998" fill="#508ac8" d="M 154.5,161.5 C 288.688,200.896 422.688,240.896 556.5,281.5C 551.784,283.739 546.784,285.405 541.5,286.5C 541.565,286.062 541.399,285.728 541,285.5C 539.667,286.167 538.333,286.833 537,287.5C 405.663,247.624 274.163,208.291 142.5,169.5C 146.148,166.34 150.148,163.673 154.5,161.5 Z"/></g>
<g><path style="opacity:0.999" fill="#4f89c8" d="M 142.5,169.5 C 274.163,208.291 405.663,247.624 537,287.5C 538.333,286.833 539.667,286.167 541,285.5C 541.399,285.728 541.565,286.062 541.5,286.5C 534.508,289.607 527.174,291.941 519.5,293.5C 507.713,289.379 495.713,285.546 483.5,282C 480.874,281.005 478.207,280.672 475.5,281C 443.945,327.048 412.612,373.214 381.5,419.5C 375.12,417.655 368.787,415.655 362.5,413.5C 393.775,366.465 425.442,319.632 457.5,273C 446.637,268.283 435.304,265.117 423.5,263.5C 420.941,263.802 418.607,263.468 416.5,262.5C 322.441,233.594 228.107,205.261 133.5,177.5C 136.474,174.862 139.474,172.195 142.5,169.5 Z"/></g>
<g><path style="opacity:0.998" fill="#4d85c5" d="M 133.5,177.5 C 228.107,205.261 322.441,233.594 416.5,262.5C 411.507,262.084 406.507,261.751 401.5,261.5C 397.833,261.5 394.167,261.5 390.5,261.5C 384.077,261.209 377.744,261.542 371.5,262.5C 358.349,263.893 345.682,266.893 333.5,271.5C 330.833,272.167 328.167,272.833 325.5,273.5C 255.043,252.968 184.71,231.968 114.5,210.5C 113.818,211.243 113.151,211.909 112.5,212.5C 115.924,200.313 121.924,189.646 130.5,180.5C 131.728,179.694 132.728,178.694 133.5,177.5 Z"/></g>
<g><path style="opacity:0.999" fill="#4982c3" d="M 325.5,273.5 C 320.089,275.303 314.756,277.303 309.5,279.5C 306.458,279.733 303.792,280.733 301.5,282.5C 299.194,282.993 296.861,283.326 294.5,283.5C 234.044,264.88 173.377,246.547 112.5,228.5C 111.261,228.942 110.261,229.609 109.5,230.5C 109.475,224.297 110.475,218.297 112.5,212.5C 113.151,211.909 113.818,211.243 114.5,210.5C 184.71,231.968 255.043,252.968 325.5,273.5 Z"/></g>
<g><path style="opacity:0.997" fill="#487ebf" d="M 294.5,283.5 C 275.222,290.617 255.555,296.951 235.5,302.5C 195.879,290.678 156.212,279.011 116.5,267.5C 116.5,268.5 116.5,269.5 116.5,270.5C 110.588,257.926 108.255,244.593 109.5,230.5C 110.261,229.609 111.261,228.942 112.5,228.5C 173.377,246.547 234.044,264.88 294.5,283.5 Z"/></g>
<g><path style="opacity:1" fill="#497dc0" d="M 390.5,261.5 C 357.5,310.167 324.5,358.833 291.5,407.5C 287.688,408.026 284.021,408.693 280.5,409.5C 277.518,409.963 274.518,410.296 271.5,410.5C 304.823,361.195 338.157,311.862 371.5,262.5C 377.744,261.542 384.077,261.209 390.5,261.5 Z"/></g>
<g><path style="opacity:1" fill="#4a7fc1" d="M 390.5,261.5 C 394.167,261.5 397.833,261.5 401.5,261.5C 368.576,309.689 335.909,358.023 303.5,406.5C 299.452,406.395 295.452,406.728 291.5,407.5C 324.5,358.833 357.5,310.167 390.5,261.5 Z"/></g>
<g><path style="opacity:1" fill="#4b82c3" d="M 401.5,261.5 C 406.507,261.751 411.507,262.084 416.5,262.5C 418.607,263.468 420.941,263.802 423.5,263.5C 423.611,264.117 423.944,264.617 424.5,265C 392.667,311.5 360.833,358 329,404.5C 328.517,405.448 328.351,406.448 328.5,407.5C 320.191,406.712 311.858,406.379 303.5,406.5C 335.909,358.023 368.576,309.689 401.5,261.5 Z"/></g>
<g><path style="opacity:1" fill="#477abd" d="M 371.5,262.5 C 338.157,311.862 304.823,361.195 271.5,410.5C 268.833,411.5 266.167,412.5 263.5,413.5C 253.108,416.297 242.774,419.297 232.5,422.5C 266.49,372.529 300.49,322.529 334.5,272.5C 334.376,271.893 334.043,271.56 333.5,271.5C 345.682,266.893 358.349,263.893 371.5,262.5 Z"/></g>
<g><path style="opacity:1" fill="#4d86c5" d="M 423.5,263.5 C 435.304,265.117 446.637,268.283 457.5,273C 425.442,319.632 393.775,366.465 362.5,413.5C 351.281,410.856 339.948,408.856 328.5,407.5C 328.351,406.448 328.517,405.448 329,404.5C 360.833,358 392.667,311.5 424.5,265C 423.944,264.617 423.611,264.117 423.5,263.5 Z"/></g>
<g><path style="opacity:1" fill="#4377bb" d="M 333.5,271.5 C 334.043,271.56 334.376,271.893 334.5,272.5C 300.49,322.529 266.49,372.529 232.5,422.5C 227.5,424.5 222.5,426.5 217.5,428.5C 214.167,429.167 210.833,429.833 207.5,430.5C 241.758,380.311 275.758,329.977 309.5,279.5C 314.756,277.303 320.089,275.303 325.5,273.5C 328.167,272.833 330.833,272.167 333.5,271.5 Z"/></g>
<g><path style="opacity:0.999" fill="#457bba" d="M 235.5,302.5 C 234.5,303.167 233.5,303.833 232.5,304.5C 221.925,307.387 211.591,310.721 201.5,314.5C 200.833,314.5 200.167,314.5 199.5,314.5C 176.946,307.522 154.279,300.522 131.5,293.5C 130.702,293.957 130.369,294.624 130.5,295.5C 124.194,288.167 119.528,279.834 116.5,270.5C 116.5,269.5 116.5,268.5 116.5,267.5C 156.212,279.011 195.879,290.678 235.5,302.5 Z"/></g>
<g><path style="opacity:1" fill="#4476bb" d="M 309.5,279.5 C 275.758,329.977 241.758,380.311 207.5,430.5C 205.786,431.738 203.786,432.405 201.5,432.5C 234.391,382.682 268.057,332.849 302.5,283C 302.272,282.601 301.938,282.435 301.5,282.5C 303.792,280.733 306.458,279.733 309.5,279.5 Z"/></g>
<g><path style="opacity:0.999" fill="#4d86c5" d="M 519.5,293.5 C 515.784,295.405 511.784,296.739 507.5,297.5C 504.685,296.874 502.185,295.54 500,293.5C 469.752,337.66 439.752,381.994 410,426.5C 408.693,428.192 407.193,429.525 405.5,430.5C 397.431,426.796 389.431,423.129 381.5,419.5C 412.612,373.214 443.945,327.048 475.5,281C 478.207,280.672 480.874,281.005 483.5,282C 495.713,285.546 507.713,289.379 519.5,293.5 Z"/></g>
<g><path style="opacity:1" fill="#4173b8" d="M 301.5,282.5 C 301.938,282.435 302.272,282.601 302.5,283C 268.057,332.849 234.391,382.682 201.5,432.5C 201.5,432.833 201.5,433.167 201.5,433.5C 184.924,438.387 168.591,443.721 152.5,449.5C 145.399,451.088 138.399,453.088 131.5,455.5C 165.109,405.131 199.109,354.965 233.5,305C 233.272,304.601 232.938,304.435 232.5,304.5C 233.5,303.833 234.5,303.167 235.5,302.5C 255.555,296.951 275.222,290.617 294.5,283.5C 296.861,283.326 299.194,282.993 301.5,282.5 Z"/></g>
<g><path style="opacity:0.999" fill="#4379b8" d="M 199.5,314.5 C 187.037,319.116 174.37,323.116 161.5,326.5C 161.167,326.5 160.833,326.5 160.5,326.5C 149.156,317.489 139.156,307.156 130.5,295.5C 130.369,294.624 130.702,293.957 131.5,293.5C 154.279,300.522 176.946,307.522 199.5,314.5 Z"/></g>
<g><path style="opacity:0.998" fill="#4b82c3" d="M 507.5,297.5 C 509.833,299.5 512.167,301.5 514.5,303.5C 484.776,346.594 455.276,389.928 426,433.5C 424.465,436.294 422.298,438.294 419.5,439.5C 414.797,436.486 410.13,433.486 405.5,430.5C 407.193,429.525 408.693,428.192 410,426.5C 439.752,381.994 469.752,337.66 500,293.5C 502.185,295.54 504.685,296.874 507.5,297.5 Z"/></g>
<g><path style="opacity:1" fill="#3d6eb6" d="M 232.5,304.5 C 232.938,304.435 233.272,304.601 233.5,305C 199.109,354.965 165.109,405.131 131.5,455.5C 125.02,457.658 118.686,459.991 112.5,462.5C 109.539,463.323 106.539,463.99 103.5,464.5C 101.354,464.304 101.188,463.304 103,461.5C 136.5,412.667 170,363.833 203.5,315C 202.906,314.536 202.239,314.369 201.5,314.5C 211.591,310.721 221.925,307.387 232.5,304.5 Z"/></g>
<g><path style="opacity:0.996" fill="#497ec0" d="M 514.5,303.5 C 520.21,307.842 525.21,312.842 529.5,318.5C 499.608,364.053 468.941,409.053 437.5,453.5C 435.754,451.748 433.754,450.415 431.5,449.5C 427.792,445.79 423.792,442.457 419.5,439.5C 422.298,438.294 424.465,436.294 426,433.5C 455.276,389.928 484.776,346.594 514.5,303.5 Z"/></g>
<g><path style="opacity:1" fill="#3b6bb4" d="M 199.5,314.5 C 200.167,314.5 200.833,314.5 201.5,314.5C 202.239,314.369 202.906,314.536 203.5,315C 170,363.833 136.5,412.667 103,461.5C 101.188,463.304 101.354,464.304 103.5,464.5C 99.0994,465.967 94.7661,467.634 90.5,469.5C 81.2251,472.369 71.8918,475.036 62.5,477.5C 95.362,427.792 128.862,378.458 163,329.5C 163.239,328.212 162.739,327.212 161.5,326.5C 174.37,323.116 187.037,319.116 199.5,314.5 Z"/></g>
<g><path style="opacity:0.996" fill="#477abd" d="M 529.5,318.5 C 535.282,323.617 539.949,329.617 543.5,336.5C 513.167,380.5 482.833,424.5 452.5,468.5C 450.5,466.833 448.5,465.167 446.5,463.5C 443.5,460.167 440.5,456.833 437.5,453.5C 468.941,409.053 499.608,364.053 529.5,318.5 Z"/></g>
<g><path style="opacity:0.994" fill="#3869b2" d="M 160.5,326.5 C 160.833,326.5 161.167,326.5 161.5,326.5C 162.739,327.212 163.239,328.212 163,329.5C 128.862,378.458 95.362,427.792 62.5,477.5C 59.5,478.833 56.5,480.167 53.5,481.5C 49.5,482.5 45.5,483.5 41.5,484.5C 41.0618,484.565 40.7284,484.399 40.5,484C 75.0545,433.619 109.388,383.119 143.5,332.5C 149.247,330.475 154.914,328.475 160.5,326.5 Z"/></g>
<g><path style="opacity:0.979" fill="#3666b0" d="M 143.5,332.5 C 109.388,383.119 75.0545,433.619 40.5,484C 40.7284,484.399 41.0618,484.565 41.5,484.5C 35.2325,487.033 28.8992,489.367 22.5,491.5C 15.2161,493.261 8.21607,495.595 1.5,498.5C 0.833333,498.5 0.166667,498.5 -0.5,498.5C -0.5,497.833 -0.5,497.167 -0.5,496.5C 26.8124,449.22 53.6458,401.553 80,353.5C 100.99,346.003 122.156,339.003 143.5,332.5 Z"/></g>
<g><path style="opacity:0.995" fill="#4477bb" d="M 543.5,336.5 C 546.593,340.347 548.926,344.68 550.5,349.5C 521.228,393.725 491.228,437.392 460.5,480.5C 457.415,476.754 454.749,472.754 452.5,468.5C 482.833,424.5 513.167,380.5 543.5,336.5 Z"/></g>
<g><path style="opacity:0.994" fill="#4475ba" d="M 550.5,349.5 C 551.931,350.78 552.598,352.447 552.5,354.5C 523.068,398.377 493.401,442.044 463.5,485.5C 462.752,483.668 461.752,482.001 460.5,480.5C 491.228,437.392 521.228,393.725 550.5,349.5 Z"/></g>
<g><path style="opacity:0.994" fill="#4173b8" d="M 552.5,354.5 C 557.665,365.298 559.998,376.798 559.5,389C 559.977,399.782 557.977,409.949 553.5,419.5C 529.109,454.594 504.942,489.927 481,525.5C 480.241,527.063 479.074,528.063 477.5,528.5C 477.442,521.21 476.108,514.21 473.5,507.5C 472.679,503.873 471.346,500.54 469.5,497.5C 468.025,493.217 466.025,489.217 463.5,485.5C 493.401,442.044 523.068,398.377 552.5,354.5 Z"/></g>
<g><path style="opacity:1" fill="#3765a6" d="M 303.5,406.5 C 311.858,406.379 320.191,406.712 328.5,407.5C 339.948,408.856 351.281,410.856 362.5,413.5C 368.787,415.655 375.12,417.655 381.5,419.5C 389.431,423.129 397.431,426.796 405.5,430.5C 410.13,433.486 414.797,436.486 419.5,439.5C 423.792,442.457 427.792,445.79 431.5,449.5C 381.21,436.011 330.877,422.677 280.5,409.5C 284.021,408.693 287.688,408.026 291.5,407.5C 295.452,406.728 299.452,406.395 303.5,406.5 Z"/></g>
<g><path style="opacity:1" fill="#3662a3" d="M 280.5,409.5 C 330.877,422.677 381.21,436.011 431.5,449.5C 433.754,450.415 435.754,451.748 437.5,453.5C 440.5,456.833 443.5,460.167 446.5,463.5C 385.5,446.833 324.5,430.167 263.5,413.5C 266.167,412.5 268.833,411.5 271.5,410.5C 274.518,410.296 277.518,409.963 280.5,409.5 Z"/></g>
<g><path style="opacity:1" fill="#345f9f" d="M 263.5,413.5 C 324.5,430.167 385.5,446.833 446.5,463.5C 448.5,465.167 450.5,466.833 452.5,468.5C 454.749,472.754 457.415,476.754 460.5,480.5C 461.752,482.001 462.752,483.668 463.5,485.5C 466.025,489.217 468.025,493.217 469.5,497.5C 385.313,474.789 301.313,451.789 217.5,428.5C 222.5,426.5 227.5,424.5 232.5,422.5C 242.774,419.297 253.108,416.297 263.5,413.5 Z"/></g>
<g><path style="opacity:1" fill="#325c9c" d="M 217.5,428.5 C 301.313,451.789 385.313,474.789 469.5,497.5C 471.346,500.54 472.679,503.873 473.5,507.5C 382.653,483.439 291.986,458.772 201.5,433.5C 201.5,433.167 201.5,432.833 201.5,432.5C 203.786,432.405 205.786,431.738 207.5,430.5C 210.833,429.833 214.167,429.167 217.5,428.5 Z"/></g>
<g><path style="opacity:1" fill="#305998" d="M 201.5,433.5 C 291.986,458.772 382.653,483.439 473.5,507.5C 476.108,514.21 477.442,521.21 477.5,528.5C 477.5,531.833 477.5,535.167 477.5,538.5C 369.015,508.999 260.681,479.332 152.5,449.5C 168.591,443.721 184.924,438.387 201.5,433.5 Z"/></g>
<g><path style="opacity:1" fill="#2d5593" d="M 152.5,449.5 C 260.681,479.332 369.015,508.999 477.5,538.5C 477.37,546.622 475.704,554.289 472.5,561.5C 352.919,527.601 232.919,494.601 112.5,462.5C 118.686,459.991 125.02,457.658 131.5,455.5C 138.399,453.088 145.399,451.088 152.5,449.5 Z"/></g>
<g><path style="opacity:0.882" fill="#3e6eb6" d="M 553.5,419.5 C 551.384,425.8 548.55,431.8 545,437.5C 520.139,481.229 495.306,524.896 470.5,568.5C 471.455,566.254 472.122,563.921 472.5,561.5C 475.704,554.289 477.37,546.622 477.5,538.5C 477.5,535.167 477.5,531.833 477.5,528.5C 479.074,528.063 480.241,527.063 481,525.5C 504.942,489.927 529.109,454.594 553.5,419.5 Z"/></g>
<g><path style="opacity:1" fill="#2b528f" d="M 112.5,462.5 C 232.919,494.601 352.919,527.601 472.5,561.5C 472.122,563.921 471.455,566.254 470.5,568.5C 470.008,570.819 469.008,572.819 467.5,574.5C 467.191,571.654 465.525,570.154 462.5,570C 338.61,535.979 214.61,502.479 90.5,469.5C 94.7661,467.634 99.0994,465.967 103.5,464.5C 106.539,463.99 109.539,463.323 112.5,462.5 Z"/></g>
<g><path style="opacity:0.999" fill="#294f8c" d="M 90.5,469.5 C 214.61,502.479 338.61,535.979 462.5,570C 465.525,570.154 467.191,571.654 467.5,574.5C 464.27,580.727 460.27,586.393 455.5,591.5C 321.427,555.03 187.427,518.364 53.5,481.5C 56.5,480.167 59.5,478.833 62.5,477.5C 71.8918,475.036 81.2251,472.369 90.5,469.5 Z"/></g>
<g><path style="opacity:0.998" fill="#274b88" d="M 53.5,481.5 C 187.427,518.364 321.427,555.03 455.5,591.5C 451.101,596.532 446.101,600.865 440.5,604.5C 301.385,566.017 162.052,528.351 22.5,491.5C 28.8992,489.367 35.2325,487.033 41.5,484.5C 45.5,483.5 49.5,482.5 53.5,481.5 Z"/></g>
<g><path style="opacity:0.998" fill="#264984" d="M 22.5,491.5 C 162.052,528.351 301.385,566.017 440.5,604.5C 435.539,608.32 430.206,611.653 424.5,614.5C 283.627,575.696 142.627,537.03 1.5,498.5C 8.21607,495.595 15.2161,493.261 22.5,491.5 Z"/></g>
<g><path style="opacity:0.992" fill="#244681" d="M -0.5,498.5 C 0.166667,498.5 0.833333,498.5 1.5,498.5C 142.627,537.03 283.627,575.696 424.5,614.5C 414.118,619.961 403.118,623.627 391.5,625.5C 277.019,593.877 162.353,562.544 47.5,531.5C 31.1314,521.655 15.1314,511.321 -0.5,500.5C -0.5,499.833 -0.5,499.167 -0.5,498.5 Z"/></g>
<g><path style="opacity:0.988" fill="#22437d" d="M 47.5,531.5 C 162.353,562.544 277.019,593.877 391.5,625.5C 378.196,629.104 364.53,631.104 350.5,631.5C 269.063,608.722 187.397,586.388 105.5,564.5C 85.5085,554.509 66.1752,543.509 47.5,531.5 Z"/></g>
<g><path style="opacity:0.958" fill="#21407a" d="M 105.5,564.5 C 187.397,586.388 269.063,608.722 350.5,631.5C 309.33,633.119 268.997,627.952 229.5,616C 186.37,602.928 145.036,585.761 105.5,564.5 Z"/></g>
</svg>
