<?xml version="1.0" encoding="UTF-8"?>
<!DOCTYPE svg PUBLIC "-//W3C//DTD SVG 1.1//EN" "http://www.w3.org/Graphics/SVG/1.1/DTD/svg11.dtd">
<svg xmlns="http://www.w3.org/2000/svg" version="1.1" width="225px" height="225px" style="shape-rendering:geometricPrecision; text-rendering:geometricPrecision; image-rendering:optimizeQuality; fill-rule:evenodd; clip-rule:evenodd" xmlns:xlink="http://www.w3.org/1999/xlink">
<g><path style="opacity:1" fill="#141414" d="M 100.5,10.5 C 115.162,10.7967 127.829,16.2967 138.5,27C 171.03,23.9991 191.53,38.1657 200,69.5C 200.925,77.2713 200.425,84.9379 198.5,92.5C 217.016,118.36 215.349,142.86 193.5,166C 186.831,171.668 179.164,175.168 170.5,176.5C 165.019,193.48 153.686,204.647 136.5,210C 116.79,214.87 99.7905,210.204 85.5,196C 55.3199,199.34 35.1532,186.84 25,158.5C 22.9191,149.127 23.0857,139.794 25.5,130.5C 8.4245,107.975 8.25783,85.3081 25,62.5C 32.5263,53.6535 42.0263,48.3201 53.5,46.5C 58.027,31.8022 67.3603,21.3022 81.5,15C 87.7851,12.6768 94.1184,11.1768 100.5,10.5 Z M 81.5,60.5 C 80.8333,79.5 80.1667,98.5 79.5,117.5C 74.8146,114.4 69.9813,111.4 65,108.5C 64.3333,90.8333 64.3333,73.1667 65,55.5C 73.2827,29.9126 90.4494,20.746 116.5,28C 119.433,29.2709 122.099,30.9376 124.5,33C 110.998,41.2523 97.3309,49.2523 83.5,57C 82.1772,57.8159 81.5106,58.9826 81.5,60.5 Z M 144.5,40.5 C 172.81,40.9748 186.643,55.3082 186,83.5C 171.629,74.9668 157.129,66.6335 142.5,58.5C 125.225,67.9337 108.059,77.6003 91,87.5C 90.1694,81.1405 90.3361,74.8072 91.5,68.5C 103.167,61.6667 114.833,54.8333 126.5,48C 132.27,44.6048 138.27,42.1048 144.5,40.5 Z M 49.5,61.5 C 50.1667,77.8333 50.8333,94.1667 51.5,110.5C 51.5106,112.017 52.1772,113.184 53.5,114C 69.8281,122.829 85.8281,132.162 101.5,142C 96.0828,144.79 90.9161,147.957 86,151.5C 71.915,143.207 57.7483,135.04 43.5,127C 28.7502,115.843 23.9169,101.343 29,83.5C 32.9353,73.4003 39.7686,66.0669 49.5,61.5 Z M 175.5,161.5 C 173.838,145.359 172.838,129.026 172.5,112.5C 172.489,110.983 171.823,109.816 170.5,109C 154.172,100.171 138.172,90.838 122.5,81C 127.917,78.2097 133.084,75.043 138,71.5C 152.085,79.793 166.252,87.9597 180.5,96C 198.717,111.132 201.883,128.965 190,149.5C 185.851,154.497 181.017,158.497 175.5,161.5 Z M 133.5,98.5 C 133.803,107.251 133.47,115.918 132.5,124.5C 125.757,128.289 118.924,131.955 112,135.5C 104.753,131.916 97.7526,127.916 91,123.5C 90.3333,115.5 90.3333,107.5 91,99.5C 97.6904,94.9872 104.69,90.9872 112,87.5C 119.126,91.3128 126.293,94.9795 133.5,98.5 Z M 144.5,105.5 C 148.909,108.567 153.576,111.233 158.5,113.5C 159.485,130.756 159.819,148.09 159.5,165.5C 153.569,189.638 138.236,200.138 113.5,197C 108.275,195.721 103.609,193.388 99.5,190C 112.167,182.667 124.833,175.333 137.5,168C 140.079,166.924 141.746,165.091 142.5,162.5C 143.167,143.5 143.833,124.5 144.5,105.5 Z M 132.5,135.5 C 133.49,141.645 133.823,147.978 133.5,154.5C 118.382,163.229 103.049,171.729 87.5,180C 67.234,185.612 51.734,179.445 41,161.5C 37.913,154.463 36.913,147.13 38,139.5C 50.0844,146.793 62.251,153.959 74.5,161C 78.6695,163.788 83.0029,164.121 87.5,162C 102.563,153.14 117.563,144.307 132.5,135.5 Z"/></g>
<g><path style="opacity:0.207" fill="#c3c3c3" d="M 49.5,61.5 C 49.56,60.9569 49.8933,60.6236 50.5,60.5C 51.4995,77.1533 51.8328,93.82 51.5,110.5C 50.8333,94.1667 50.1667,77.8333 49.5,61.5 Z"/></g>
<g><path style="opacity:0.183" fill="#cccccc" d="M 81.5,60.5 C 81.8329,79.8448 81.4996,99.1782 80.5,118.5C 79.8933,118.376 79.56,118.043 79.5,117.5C 80.1667,98.5 80.8333,79.5 81.5,60.5 Z"/></g>
<g><path style="opacity:0.619" fill="#5f5f5f" d="M 133.5,98.5 C 134.166,102.653 134.499,106.987 134.5,111.5C 134.492,116.222 133.825,120.555 132.5,124.5C 133.47,115.918 133.803,107.251 133.5,98.5 Z"/></g>
<g><path style="opacity:0.231" fill="#bfbfbf" d="M 144.5,105.5 C 143.833,124.5 143.167,143.5 142.5,162.5C 142.167,143.155 142.5,123.822 143.5,104.5C 144.107,104.624 144.44,104.957 144.5,105.5 Z"/></g>
<g><path style="opacity:0.678" fill="#555555" d="M 172.5,112.5 C 172.838,129.026 173.838,145.359 175.5,161.5C 174.791,162.404 173.791,162.737 172.5,162.5C 172.5,145.833 172.5,129.167 172.5,112.5 Z"/></g>
<g><path style="opacity:0.38" fill="#989898" d="M 158.5,113.5 C 159.831,121.807 160.498,130.473 160.5,139.5C 160.5,148.34 160.166,157.007 159.5,165.5C 159.819,148.09 159.485,130.756 158.5,113.5 Z"/></g>
<g><path style="opacity:0.598" fill="#656565" d="M 132.5,135.5 C 132.56,134.957 132.893,134.624 133.5,134.5C 134.818,141.322 134.818,147.989 133.5,154.5C 133.823,147.978 133.49,141.645 132.5,135.5 Z"/></g>
</svg>
